{
  "accessors": [
    {
      "name": "10477_Satellite_v1_SG_1_0_positions",
      "componentType": 5126,
      "count": 43776,
      "min": [
        -2561.54833984375,
        -409.01519775390625,
        4.073400020599365
      ],
      "max": [
        2561.54833984375,
        402.2244873046875,
        1207.884521484375
      ],
      "type": "VEC3",
      "bufferView": 0,
      "byteOffset": 0
    },
    {
      "name": "10477_Satellite_v1_SG_1_0_normals",
      "componentType": 5126,
      "count": 43776,
      "min": [
        -1,
        -1,
        -1
      ],
      "max": [
        1,
        1,
        1
      ],
      "type": "VEC3",
      "bufferView": 1,
      "byteOffset": 0
    },
    {
      "name": "10477_Satellite_v1_SG_1_0_texcoords",
      "componentType": 5126,
      "count": 43776,
      "min": [
        0.002400000113993883,
        0.00559999980032444
      ],
      "max": [
        0.9520000219345093,
        0.9970999956130981
      ],
      "type": "VEC2",
      "bufferView": 2,
      "byteOffset": 0
    },
    {
      "name": "10477_Satellite_v1_SG_1_0_indices",
      "componentType": 5123,
      "count": 236928,
      "min": [
        0
      ],
      "max": [
        43775
      ],
      "type": "SCALAR",
      "bufferView": 3,
      "byteOffset": 0
    }
  ],
  "asset": {
    "generator": "obj2gltf",
    "version": "2.0"
  },
  "buffers": [
    {
      "name": "Satellite",
      "byteLength": 2571140,
      "uri": "data:application/octet-stream;base64,"
    }
  ],
  "bufferViews": [
    {
      "name": "bufferView_0",
      "buffer": 0,
      "byteLength": 525312,
      "byteOffset": 0,
      "byteStride": 12,
      "target": 34962
    },
    {
      "name": "bufferView_1",
      "buffer": 0,
      "byteLength": 525312,
      "byteOffset": 525312,
      "byteStride": 12,
      "target": 34962
    },
    {
      "name": "bufferView_2",
      "buffer": 0,
      "byteLength": 350208,
      "byteOffset": 1050624,
      "byteStride": 8,
      "target": 34962
    },
    {
      "name": "bufferView_3",
      "buffer": 0,
      "byteLength": 473856,
      "byteOffset": 1400832,
      "target": 34963
    },
    {
      "buffer": 0,
      "byteOffset": 1874688,
      "byteLength": 696451
    }
  ],
  "images": [
    {
      "name": "10477_Satellite_v1_Diffuse",
      "mimeType": "image/jpeg",
      "bufferView": 4
    }
  ],
  "materials": [
    {
      "name": "10477_Satellite_v1",
      "pbrMetallicRoughness": {
        "baseColorTexture": {
          "index": 0
        },
        "baseColorFactor": [
          1,
          1,
          1,
          1
        ],
        "metallicFactor": 0,
        "roughnessFactor": 0.97
      },
      "emissiveFactor": [
        0,
        0,
        0
      ],
      "alphaMode": "OPAQUE",
      "doubleSided": false
    }
  ],
  "meshes": [
    {
      "name": "10477_Satellite_v1_SG_1",
      "primitives": [
        {
          "attributes": {
            "POSITION": 0,
            "NORMAL": 1,
            "TEXCOORD_0": 2
          },
          "indices": 3,
          "material": 0,
          "mode": 4
        }
      ]
    }
  ],
  "nodes": [
    {
      "name": "10477_Satellite_v1_SG",
      "mesh": 0
    }
  ],
  "samplers": [
    {
      "wrapS": 10497,
      "wrapT": 10497
    }
  ],
  "scene": 0,
  "scenes": [
    {
      "nodes": [
        0
      ]
    }
  ],
  "textures": [
    {
      "name": "10477_Satellite_v1_Diffuse",
      "sampler": 0,
      "source": 0
    }
  ]
}
